<svg width="32" height="32" viewBox="0 0 32 32" fill="none" xmlns="http://www.w3.org/2000/svg">
<g id="medal 1" clip-path="url(#clip0_1_2933)">
<g id="Group">
<g id="Group_2">
<path id="Vector" d="M22.3051 21.9341L23.0344 22.1052L25.4018 28.9068C25.4772 29.1234 25.3017 29.345 25.0735 29.321L21.7551 28.9736C21.6624 28.9639 21.5702 28.996 21.5036 29.0611L19.1181 31.3939C18.9541 31.5543 18.679 31.4896 18.6036 31.273L16.2207 24.4269L16.5655 23.9217L22.3051 21.9341Z" fill="#FF4755"/>
<path id="Vector_2" d="M16.2208 24.4269L15.7393 23.0436L22.5545 20.726L23.0345 22.1052C21.0993 23.4861 18.7561 24.3314 16.2208 24.4269Z" fill="#FC2B3A"/>
<path id="Vector_3" d="M9.18369 21.9341L8.45448 22.1052L6.08709 28.9068C6.01165 29.1234 6.18719 29.345 6.41536 29.321L9.73376 28.9736C9.82646 28.9639 9.91862 28.996 9.98522 29.0611L12.3707 31.3939C12.5347 31.5543 12.8099 31.4896 12.8852 31.273L15.2681 24.4269L14.9233 23.9217L9.18369 21.9341Z" fill="#FF4755"/>
<path id="Vector_4" d="M15.2685 24.4269L15.75 23.0436L8.93485 20.726L8.4548 22.1052C10.39 23.4861 12.7332 24.3314 15.2685 24.4269Z" fill="#FC2B3A"/>
<path id="Vector_5" d="M15.7483 22.2557C4.58206 22.2557 4.57279 11.4866 4.58206 11.3C4.87556 5.38715 9.76259 0.683289 15.7483 0.683289C21.7339 0.683289 26.621 5.38715 26.9145 11.3C26.9237 11.4866 26.9284 22.2557 15.7483 22.2557Z" fill="#FFCB5B"/>
<path id="Vector_6" d="M15.7499 21.9165C9.7642 21.9165 4.87735 17.2127 4.58379 11.2999C4.57452 11.4866 4.56971 11.6744 4.56971 11.8634C4.56971 18.038 9.57525 23.0435 15.7499 23.0435C21.9245 23.0435 26.93 18.038 26.93 11.8634C26.93 11.6744 26.9252 11.4866 26.916 11.2999C26.6224 17.2127 21.7355 21.9165 15.7499 21.9165Z" fill="#F7B737"/>
<path id="Vector_7" d="M15.7498 19.935C6.95993 19.935 6.94814 11.4862 6.95993 11.2999C7.25048 6.69816 11.0748 3.05582 15.7498 3.05582C20.4248 3.05582 24.2491 6.69816 24.5396 11.2999C24.5514 11.4862 24.5574 19.935 15.7498 19.935Z" fill="#FF9838"/>
<path id="Vector_8" d="M15.7497 19.5439C11.0747 19.5439 7.25115 15.9015 6.96053 11.2999C6.94874 11.4863 6.94206 11.6741 6.94206 11.8634C6.94206 16.7277 10.8854 20.671 15.7497 20.671C20.614 20.671 24.5573 16.7277 24.5573 11.8634C24.5573 11.674 24.5506 11.4863 24.5388 11.2999C24.2482 15.9015 20.4246 19.5439 15.7497 19.5439Z" fill="#FF8709"/>
<path id="Vector_9" d="M16.556 7.57308L17.3774 9.23749C17.5084 9.50284 17.7616 9.68679 18.0544 9.72932L19.8912 9.99624C20.6287 10.1034 20.9231 11.0097 20.3895 11.5299L19.0604 12.8254C18.8485 13.032 18.7518 13.3296 18.8018 13.6213L19.1156 15.4507C19.1453 15.6242 19.068 15.9323 19.068 15.9323H17.811L15.7497 14.7734L13.6884 15.9323L12.4418 15.9574C12.4418 15.9574 12.3523 15.6343 12.3838 15.4506L12.6976 13.6213C12.7477 13.3296 12.6509 13.032 12.439 12.8254L11.1099 11.5299C10.5763 11.0097 10.8707 10.1034 11.6082 9.99618L13.445 9.72926C13.7378 9.68673 13.991 9.50278 14.122 9.23743L14.9434 7.57302C15.2732 6.90481 16.2262 6.90481 16.556 7.57308Z" fill="#FFF5F5"/>
<g id="Group_3">
<path id="Vector_10" d="M15.604 14.2645L12.4319 15.9322C12.6164 16.399 13.1846 16.6634 13.6884 16.3986L15.3313 15.5349C15.5932 15.3972 15.9061 15.3972 16.1681 15.5349L17.811 16.3986C18.3148 16.6634 18.8831 16.399 19.0675 15.9322L15.8954 14.2645C15.8041 14.2165 15.6952 14.2165 15.604 14.2645Z" fill="#EFE2DD"/>
</g>
</g>
</g>
</g>
<defs>
<clipPath id="clip0_1_2933">
<rect width="30.8" height="30.8" fill="white" transform="translate(0.349983 0.683319)"/>
</clipPath>
</defs>
</svg>
