<svg width="30" height="30" viewBox="0 0 30 30" fill="none" xmlns="http://www.w3.org/2000/svg">
<g id="rating 1" clip-path="url(#clip0_1_2901)">
<path id="Vector" d="M6.19998 24.6774C3.78139 24.6774 1.81323 26.7039 1.81323 29.1227V30H8.83212L10.4982 28.1868C10.0905 26.1868 8.31851 24.6774 6.19998 24.6774Z" fill="#FF5E70"/>
<path id="Vector_2" d="M6.19994 24.6773C4.26451 24.6773 2.69049 23.1033 2.69049 21.1679C2.69049 19.2322 4.26451 17.6584 6.19994 17.6584C8.13559 17.6584 9.70938 19.2322 9.70938 21.1679C9.70938 23.1033 8.13559 24.6773 6.19994 24.6773Z" fill="#FF5E70"/>
<path id="Vector_3" d="M23.7472 24.6774C21.6289 24.6774 19.8569 26.1868 19.4492 28.1868L21.1152 30H28.1341V29.1227C28.1341 26.7039 26.166 24.6774 23.7472 24.6774Z" fill="#FF3651"/>
<path id="Vector_4" d="M23.7472 24.6773C21.8118 24.6773 20.2377 23.1033 20.2377 21.1679C20.2377 19.2322 21.8118 17.6584 23.7472 17.6584C25.6828 17.6584 27.2566 19.2322 27.2566 21.1679C27.2566 23.1033 25.6828 24.6773 23.7472 24.6773Z" fill="#FF3651"/>
<path id="Vector_5" d="M20.308 3.93654L16.6232 3.39249L14.9737 0L13.3241 3.39249L9.63934 3.93654L12.3065 6.53343L11.6748 10.1834L14.9737 8.46382L18.2725 10.1834L17.6408 6.53343L20.308 3.93654Z" fill="#FDBF00"/>
<path id="Vector_6" d="M27.7425 16.1572L24.4489 14.4266L21.1571 16.1572L21.7861 12.491L19.123 9.895L22.803 9.36034L24.4491 6.02484L26.095 9.36034L29.9473 9.895L27.1119 12.491L27.7425 16.1572Z" fill="#FF9100"/>
<path id="Vector_7" d="M8.79021 16.1572L5.49843 14.4266L2.20482 16.1572L2.83539 12.491L0 9.895L3.85231 9.36034L5.4982 6.02484L7.14432 9.36034L10.8243 9.895L8.16124 12.491L8.79021 16.1572Z" fill="#FDBF00"/>
<path id="Vector_8" d="M14.9737 12.3942C12.5521 12.3942 10.5869 14.3596 10.5869 16.7811C10.5869 19.2025 12.5521 21.1679 14.9737 21.1679C17.3952 21.1679 19.3604 19.2025 19.3604 16.7811C19.3604 14.3596 17.3952 12.3942 14.9737 12.3942Z" fill="#7D89FF"/>
<path id="Vector_9" d="M14.9737 21.1679C11.5871 21.1679 8.83209 23.9227 8.83209 27.3095V30H21.1153V27.3095C21.1153 23.9227 18.3602 21.1679 14.9737 21.1679Z" fill="#7D89FF"/>
<path id="Vector_10" d="M14.9737 21.1679V12.3942C17.3953 12.3942 19.3604 14.3596 19.3604 16.7811C19.3604 19.2025 17.3953 21.1679 14.9737 21.1679Z" fill="#6B78F7"/>
<path id="Vector_11" d="M18.2726 10.1834L14.9737 8.46359V0L16.6232 3.39249L20.308 3.93654L17.6409 6.53343L18.2726 10.1834Z" fill="#FF9100"/>
<path id="Vector_12" d="M21.1153 27.3095V30H14.9737V21.1679C18.3602 21.1679 21.1153 23.9227 21.1153 27.3095Z" fill="#6B78F7"/>
</g>
<defs>
<clipPath id="clip0_1_2901">
<rect width="30" height="30" fill="white"/>
</clipPath>
</defs>
</svg>
