<svg width="227" height="222" viewBox="0 0 227 222" fill="none" xmlns="http://www.w3.org/2000/svg">
<path id="Vector" d="M44.7164 82.8175C49.8637 71.5107 57.7203 61.648 67.5901 54.1032C77.4599 46.5583 89.0383 41.5643 101.299 39.5636C113.561 37.5628 126.126 38.617 137.882 42.6329C149.639 46.6488 160.223 53.5023 168.698 62.5862C177.172 71.6702 183.276 82.7041 186.467 94.7105C189.658 106.717 189.839 119.325 186.993 131.418C184.147 143.511 178.363 154.715 170.152 164.038C161.941 173.362 151.557 180.516 139.921 184.867C137.597 185.736 135.467 187.055 133.653 188.747C131.838 190.44 130.375 192.473 129.346 194.731C128.318 196.99 127.744 199.428 127.658 201.908C127.572 204.388 127.975 206.86 128.844 209.184C130.6 213.878 134.149 217.681 138.709 219.759C140.967 220.787 143.406 221.361 145.886 221.447C148.365 221.533 150.838 221.13 153.162 220.261C174.151 212.409 192.341 198.51 205.431 180.32C218.522 162.131 225.924 140.468 226.702 118.072C227.48 95.6751 221.6 73.5508 209.804 54.4965C198.008 35.4422 180.826 20.3138 160.432 11.0244C140.038 1.73496 117.348 -1.29824 95.2298 2.30837C73.1119 5.91498 52.5602 15.9994 36.1737 31.2864C19.7872 46.5733 8.30188 66.3762 3.17016 88.1908C-1.96156 110.005 -0.509172 132.852 7.34364 153.841C8.21356 156.164 9.53249 158.292 11.2251 160.106C12.9177 161.919 14.9509 163.381 17.2086 164.408C19.4662 165.435 21.9041 166.008 24.383 166.093C26.862 166.179 29.3334 165.775 31.6563 164.905C33.9792 164.035 36.108 162.716 37.9211 161.023C39.7342 159.331 41.1962 157.298 42.2236 155.04C43.251 152.782 43.8237 150.344 43.9089 147.865C43.9941 145.386 43.5902 142.915 42.7203 140.592C39.2272 131.306 37.6052 121.421 37.9478 111.505C38.2903 101.59 40.5907 91.8403 44.7164 82.8175Z" fill="url(#paint0_linear_1_2785)" fill-opacity="0.5"/>
<defs>
<linearGradient id="paint0_linear_1_2785" x1="160.432" y1="11.0244" x2="77.9587" y2="192.087" gradientUnits="userSpaceOnUse">
<stop stop-color="white"/>
<stop offset="1" stop-color="white" stop-opacity="0"/>
</linearGradient>
</defs>
</svg>
