<svg width="40" height="40" viewBox="0 0 40 40" fill="none" xmlns="http://www.w3.org/2000/svg">
<g id="box" clip-path="url(#clip0_1_2959)">
<path id="Vector" d="M19.4349 0.129199L1.52321 8.77623C1.2986 8.88467 1.15594 9.11201 1.15594 9.36139V30.6386C1.15594 30.888 1.29868 31.1153 1.52321 31.2237L19.4349 39.8708C19.7918 40.0431 20.2079 40.0431 20.5649 39.8708L38.4765 31.2237C38.7011 31.1153 38.8438 30.888 38.8438 30.6386V9.36139C38.8438 9.11201 38.701 8.88467 38.4765 8.77623L20.5649 0.129199C20.2079 -0.0430664 19.7918 -0.0430664 19.4349 0.129199Z" fill="#FFE17D"/>
<path id="Vector_2" d="M1.26399 9.00574C1.19571 9.10972 1.15594 9.23214 1.15594 9.36144V30.6386C1.15594 30.888 1.29868 31.1153 1.52321 31.2238L19.4349 39.8707C19.6133 39.9569 19.8066 40 19.9999 40V18.0507L1.26399 9.00574Z" fill="#FFC350"/>
<path id="Vector_3" d="M38.7358 9.00574C38.8041 9.10972 38.8438 9.23214 38.8438 9.36144V30.6386C38.8438 30.888 38.7011 31.1153 38.4766 31.2238L20.5649 39.8707C20.3865 39.9569 20.1932 40 19.9999 40V18.0507L38.7358 9.00574Z" fill="#FFD164"/>
<path id="Vector_4" d="M6.51608 29.5044C6.42155 29.5044 6.32507 29.4835 6.23436 29.4397L3.46897 28.1047C3.14538 27.9486 3.01022 27.5602 3.16632 27.2372C3.32179 26.9143 3.7114 26.7797 4.03374 26.9346L6.79913 28.2697C7.12272 28.4258 7.25788 28.8142 7.10179 29.1372C6.99015 29.3693 6.75788 29.5044 6.51608 29.5044Z" fill="#FFE17D"/>
<path id="Vector_5" d="M9.06131 27.8477C8.96677 27.8477 8.87029 27.8267 8.77959 27.783L3.47271 25.2213C3.14974 25.0652 3.01396 24.6768 3.17006 24.3538C3.32552 24.0315 3.71576 23.8963 4.03748 24.0512L9.34427 26.6129C9.66724 26.769 9.80302 27.1574 9.64693 27.4803C9.53537 27.7124 9.3031 27.8477 9.06131 27.8477Z" fill="#FFF6D8"/>
<path id="Vector_6" d="M32.3865 12.0603L13.5848 2.97729L8.62854 5.37964L27.4724 14.4767L32.3865 12.0603Z" fill="#FF8087"/>
<path id="Vector_7" d="M27.4725 14.4768V21.5242C27.4725 21.7637 27.7229 21.9209 27.9387 21.8168L32.0193 19.8468C32.2439 19.7384 32.3866 19.5111 32.3866 19.2617V12.0604L27.4725 14.4768Z" fill="#E6646E"/>
</g>
<defs>
<clipPath id="clip0_1_2959">
<rect width="40" height="40" fill="white"/>
</clipPath>
</defs>
</svg>
