<svg width="40" height="41" viewBox="0 0 40 41" fill="none" xmlns="http://www.w3.org/2000/svg">
<g id="calendar" clip-path="url(#clip0_1_2989)">
<path id="Vector" d="M31.7676 40.315H0V10.0787H40V32.0177L31.7676 40.315Z" fill="white"/>
<path id="Vector_2" d="M0 10.0787H40V15.1181H0V10.0787Z" fill="#DCE9FF"/>
<path id="Vector_3" d="M7.5 5.03937H5V1.25984C5 0.564099 5.55969 0 6.25 0C6.94031 0 7.5 0.564099 7.5 1.25984V5.03937Z" fill="#D0DCEE"/>
<path id="Vector_4" d="M35 5.03937H32.5V1.25984C32.5 0.564099 33.0597 0 33.75 0C34.4403 0 35 0.564099 35 1.25984V5.03937Z" fill="#D0DCEE"/>
<path id="Vector_5" d="M31.7676 32.0177V40.3149L40 32.0177H31.7676Z" fill="#DBE6F8"/>
<path id="Vector_6" d="M17.5926 31.9246L11.4451 26.9682C10.9058 26.5333 10.8183 25.7404 11.2501 25.1969C11.6816 24.6534 12.4683 24.5651 13.0076 25.0003L17.4076 28.548L26.9825 18.8977C27.4708 18.4059 28.2621 18.4059 28.7501 18.8977C29.2381 19.3895 29.2381 20.187 28.7501 20.6792L17.5926 31.9246Z" fill="#0AC1A7"/>
<path id="Vector_7" d="M40 12.5984H0V6.29923C0 4.90774 1.11938 3.77954 2.5 3.77954H37.5C38.8806 3.77954 40 4.90774 40 6.29923V12.5984Z" fill="#FF3132"/>
</g>
<defs>
<clipPath id="clip0_1_2989">
<rect width="40" height="40.315" fill="white"/>
</clipPath>
</defs>
</svg>
