<svg width="20" height="20" viewBox="0 0 20 20" fill="none" xmlns="http://www.w3.org/2000/svg">
<path d="M12.825 4.34169L14 6.69169C14.1583 7.01669 14.5833 7.32503 14.9417 7.39169L17.0667 7.74169C18.425 7.96669 18.7417 8.95003 17.7667 9.93336L16.1083 11.5917C15.8333 11.8667 15.675 12.4084 15.7667 12.8L16.2417 14.85C16.6167 16.4667 15.75 17.1 14.325 16.25L12.3333 15.0667C11.975 14.85 11.375 14.85 11.0167 15.0667L9.025 16.25C7.6 17.0917 6.73334 16.4667 7.10834 14.85L7.58334 12.8C7.65834 12.4 7.5 11.8584 7.225 11.5834L5.56667 9.92503C4.59167 8.95003 4.90834 7.96669 6.26667 7.73336L8.39167 7.38336C8.75 7.32503 9.175 7.00836 9.33334 6.68336L10.5083 4.33336C11.15 3.06669 12.1833 3.06669 12.825 4.34169Z" fill="#FFBF00"/>
<path d="M6.66667 4.79163H1.66667C1.32501 4.79163 1.04167 4.50829 1.04167 4.16663C1.04167 3.82496 1.32501 3.54163 1.66667 3.54163H6.66667C7.00834 3.54163 7.29167 3.82496 7.29167 4.16663C7.29167 4.50829 7.00834 4.79163 6.66667 4.79163Z" fill="#FFBF00"/>
<path d="M4.16667 16.4584H1.66667C1.32501 16.4584 1.04167 16.175 1.04167 15.8334C1.04167 15.4917 1.32501 15.2084 1.66667 15.2084H4.16667C4.50834 15.2084 4.79167 15.4917 4.79167 15.8334C4.79167 16.175 4.50834 16.4584 4.16667 16.4584Z" fill="#FFBF00"/>
<path d="M2.50001 10.625H1.66667C1.32501 10.625 1.04167 10.3417 1.04167 10C1.04167 9.65833 1.32501 9.375 1.66667 9.375H2.50001C2.84167 9.375 3.12501 9.65833 3.12501 10C3.12501 10.3417 2.84167 10.625 2.50001 10.625Z" fill="#FFBF00"/>
</svg>
