<svg width="30" height="30" viewBox="0 0 30 30" fill="none" xmlns="http://www.w3.org/2000/svg">
<g id="shield 1" clip-path="url(#clip0_1_2888)">
<g id="surface1">
<path id="Vector" d="M26.483 20.0338C25.6767 22.2192 24.4572 24.1194 22.858 25.681C21.0377 27.4585 18.6541 28.871 15.7734 29.8785C15.6789 29.9115 15.5802 29.9385 15.4811 29.9584C15.3502 29.9842 15.217 29.9982 15.0849 30H15.0591C14.9183 30 14.7768 29.9859 14.6365 29.9584C14.5374 29.9385 14.4402 29.9115 14.3461 29.8792C11.4619 28.8733 9.07539 27.4615 7.25326 25.684C5.65338 24.1224 4.43412 22.2233 3.62891 20.038C2.16476 16.0646 2.24807 11.6874 2.31513 8.16996L2.31628 8.11594C2.32978 7.82549 2.33848 7.52039 2.34328 7.18348C2.36777 5.52935 3.68293 4.16086 5.33729 4.06862C8.78654 3.87613 11.4548 2.75118 13.7347 0.528961L13.7547 0.51065C14.1332 0.163436 14.6102 -0.00685199 15.0849 0.000243383C15.5427 0.00619433 15.9986 0.176254 16.3637 0.51065L16.3831 0.528961C18.6635 2.75118 21.3318 3.87613 24.781 4.06862C26.4354 4.16086 27.7506 5.52935 27.7751 7.18348C27.7799 7.52268 27.7886 7.82732 27.8021 8.11594L27.8027 8.13883C27.8696 11.6629 27.9524 16.0488 26.483 20.0338Z" fill="#00DD80"/>
<path id="Vector_2" d="M26.4829 20.0338C25.6765 22.2192 24.457 24.1194 22.8578 25.681C21.0375 27.4585 18.654 28.871 15.7733 29.8785C15.6787 29.9115 15.5801 29.9385 15.481 29.9584C15.3501 29.9842 15.2168 29.9982 15.0848 30V0.000244141C15.5425 0.00619509 15.9985 0.176254 16.3635 0.510651L16.383 0.528962C18.6634 2.75118 21.3317 3.87613 24.7809 4.06862C26.4353 4.16086 27.7504 5.52935 27.7749 7.18348C27.7797 7.52268 27.7884 7.82732 27.8019 8.11594L27.8026 8.13883C27.8695 11.6629 27.9523 16.0488 26.4829 20.0338Z" fill="#00AA63"/>
<path id="Vector_3" d="M22.5351 15C22.5351 19.1137 19.195 22.4623 15.0848 22.4769H15.0584C10.936 22.4769 7.58154 19.1227 7.58154 15C7.58154 10.8776 10.936 7.52338 15.0584 7.52338H15.0848C19.195 7.53802 22.5351 10.8866 22.5351 15Z" fill="white"/>
<path id="Vector_4" d="M22.5351 15C22.5351 19.1137 19.1951 22.4623 15.0848 22.4769V7.52338C19.1951 7.53802 22.5351 10.8866 22.5351 15Z" fill="#E1EBF0"/>
<path id="Vector_5" d="M18.4521 13.9234L15.0848 17.2911L14.3571 18.0187C14.1852 18.1906 13.9598 18.2765 13.7346 18.2765C13.5091 18.2765 13.2839 18.1906 13.1118 18.0187L11.5474 16.4536C11.2036 16.1099 11.2036 15.553 11.5474 15.209C11.8907 14.8652 12.4483 14.8652 12.792 15.209L13.7346 16.1515L17.2074 12.6787C17.5512 12.3347 18.1087 12.3347 18.4521 12.6787C18.7958 13.0225 18.7958 13.58 18.4521 13.9234Z" fill="#B4D2D7"/>
<path id="Vector_6" d="M18.4521 13.9234L15.0848 17.2911V14.8011L17.2074 12.6787C17.5512 12.3347 18.1087 12.3347 18.4521 12.6787C18.7958 13.0225 18.7958 13.58 18.4521 13.9234Z" fill="#6FA5AA"/>
</g>
</g>
<defs>
<clipPath id="clip0_1_2888">
<rect width="30" height="30" fill="white"/>
</clipPath>
</defs>
</svg>
