<svg width="40" height="40" viewBox="0 0 40 40" fill="none" xmlns="http://www.w3.org/2000/svg">
<g id="statistics" clip-path="url(#clip0_1_2973)">
<path id="Vector" d="M11.9853 23.7693H6.21387C5.2763 23.7693 4.5163 24.5293 4.5163 25.4669V38.3023C4.5163 39.2399 5.2763 39.9999 6.21387 39.9999H11.9853C12.9228 39.9999 13.6828 39.2399 13.6828 38.3023V25.4669C13.6828 24.5293 12.9228 23.7693 11.9853 23.7693Z" fill="#FFDC4A"/>
<path id="Vector_2" d="M6.93082 38.3023V25.4669C6.93082 24.5294 7.69082 23.7693 8.6284 23.7693H6.21387C5.2763 23.7693 4.5163 24.5293 4.5163 25.4669V38.3024C4.5163 39.24 5.2763 40 6.21387 40H8.62832C7.69082 39.9999 6.93082 39.2399 6.93082 38.3023Z" fill="#EDCA3A"/>
<path id="Vector_3" d="M24.4316 17.8827H18.6602C17.7226 17.8827 16.9626 18.6427 16.9626 19.5803V38.3025C16.9626 39.2401 17.7226 40.0001 18.6602 40.0001H24.4316C25.3692 40.0001 26.1292 39.2401 26.1292 38.3025V19.5802C26.1292 18.6427 25.3692 17.8827 24.4316 17.8827Z" fill="#FF3132"/>
<path id="Vector_4" d="M19.3772 38.3024V19.5801C19.3772 18.6426 20.1372 17.8826 21.0748 17.8826H18.6603C17.7228 17.8826 16.9628 18.6426 16.9628 19.5801V38.3024C16.9628 39.24 17.7228 40 18.6603 40H21.0748C20.1372 40 19.3772 39.24 19.3772 38.3024Z" fill="#D82A2B"/>
<path id="Vector_5" d="M36.8778 11.9958H31.1064C30.1689 11.9958 29.4089 12.7558 29.4089 13.6934V38.3024C29.4089 39.2399 30.1689 39.9999 31.1064 39.9999H36.8778C37.8154 39.9999 38.5754 39.2399 38.5754 38.3024V13.6934C38.5753 12.7558 37.8153 11.9958 36.8778 11.9958Z" fill="#3CDCF9"/>
<path id="Vector_6" d="M31.8234 38.3024V13.6934C31.8234 12.7558 32.5834 11.9958 33.521 11.9958H31.1066C30.169 11.9958 29.409 12.7558 29.409 13.6934V38.3024C29.409 39.2399 30.169 39.9999 31.1066 39.9999H33.521C32.5834 39.9999 31.8234 39.2399 31.8234 38.3024Z" fill="#30CBE8"/>
<path id="Vector_7" d="M38.4842 0.00739403L32.6539 0.767236L34.0632 2.65223L29.0702 6.38535L26.4439 4.06981C25.996 3.67489 25.3327 3.64825 24.8543 4.00575L13.6876 12.3545L11.0754 10.3976C10.6274 10.062 10.0119 10.0617 9.56372 10.3969L0.56546 17.1246L2.07608 19.1452L10.3183 12.9828L12.9306 14.9397C13.3785 15.2753 13.994 15.2756 14.4422 14.9404L25.5441 6.63988L28.1704 8.95542C28.6183 9.35034 29.2818 9.37706 29.76 9.01949L35.5738 4.6727L36.9845 6.55933L39.3616 1.18044C39.6264 0.581143 39.1339 -0.0772933 38.4842 0.00739403Z" fill="#2DC580"/>
</g>
<defs>
<clipPath id="clip0_1_2973">
<rect width="40" height="40" fill="white"/>
</clipPath>
</defs>
</svg>
